# xmcd
#
# Track frame offsets:
# 150
# 25317
# 44622
# 55195
# 94460
# 140777
# 173685
# 199885
# 213420
# 231977
# 250673
# 267302
# 298055
# 315642
#
# Disc length: 4627 seconds
#
# Revision: 1
# Processed by: cddbd v1.5.2PL0 Copyright (c) Steve Scherf et al.
# Submitted via: Easy CD Ripper v2.26
#
DISCID=db12110e
DTITLE=Gary Moore - The Best Of The Blues (2CDs) [CD2)
DYEAR=2002
DGENRE=Blues
TTITLE0=Caldonia - Gary Moore
TTITLE1=You Don't Love Me - Gary Moore
TTITLE2=Key To Love - Garry Moore
TTITLE3=The Thrill Is Gone - Gary Moore
TTITLE4=Stormy Monday - Gary Moore
TTITLE5=Cold, Cold Feeling - Gary Moore
TTITLE6=Further Up The Road - Gary Moore
TTITLE7=The Stumble - Gary Moore
TTITLE8=Oh Pretty Woman - Gary Moore
TTITLE9=Walking By Myself - Gary Moore
TTITLE10=Too Tired - Gary Moore
TTITLE11=Still Got The Blues - Gary Moore
TTITLE12=All Your Love - Gary Moore
TTITLE13=Midnight Blues - Gary Moore
EXTD=Missing Data
EXTT0=
EXTT1=
EXTT2=CD2
EXTT3=
EXTT4=
EXTT5=
EXTT6=
EXTT7=
EXTT8=
EXTT9=
EXTT10=
EXTT11=
EXTT12=
EXTT13=
PLAYORDER=
